{"title":"Toy Story 3.2010.CAM.XviD.AC3.RUS-ELEKTRI4KA","uid":5636994,"size":1465585795,"categoryP":"video","categoryS":"movies","magnet":"?xt=urn:btih:b9441806cc859bf6164bf3d28b2a42e1b88acccd&amp;dn=Toy+Story+3.2010.CAM.XviD.AC3.RUS-ELEKTRI4KA&amp;tr=udp%3A%2F%2Ftracker.openbittorrent.com%3A80&amp;tr=udp%3A%2F%2Fopen.demonii.com%3A1337&amp;tr=udp%3A%2F%2Ftracker.coppersurfer.tk%3A6969&amp;tr=udp%3A%2F%2Fexodus.desync.com%3A6969","seeders":0,"leechers":1,"uploader":"hiest","files":2,"time":1276930788,"description":"General\nComplete name : Toy Story 3.2010.CAM.XviD.AC3.RUS-ELEKTRI4KA.avi\nFormat : AVI\nFormat/Info : Audio Video Interleave\nFile size : 1.36 GiB\nDuration : 1h 34mn\nOverall bit rate : 2 076 Kbps\nWriting application : VirtualDubMod 1.5.10.2 (build 2540/release)\nWriting library : VirtualDubMod build 2540/release\n\nVideo\nID : 0\nFormat : MPEG-4 Visual\nFormat profile : Advanced Simple@L5\nFormat settings, BVOP : Yes\nFormat settings, QPel : Yes\nFormat settings, GMC : No warppoints\nFormat settings, Matrix : Default (H.263)\nCodec ID : XVID\nCodec ID/Hint : XviD\nDuration : 1h 34mn\nBit rate : 1 875 Kbps\nWidth : 656 pixels\nHeight : 368 pixels\nDisplay aspect ratio : 16:9\nFrame rate : 25.000 fps\nResolution : 8 bits\nColorimetry : 4:2:0\nScan type : Progressive\nBits/(Pixel*Frame) : 0.311\nStream size : 1.23 GiB (90%)\nWriting library : XviD 1.2.1 (UTC 2008-12-04)\n\nAudio RusÃ„Æ’\nID : 1\nFormat : AC-3\nFormat/Info : Audio Coding 3\nFormat_Settings_ModeExtension : CM (complete main)\nCodec ID : 2000\nDuration : 1h 34mn\nBit rate mode : Constant\nBit rate : 192 Kbps\nChannel(s) : 2 channels\nChannel positions : Front: L R\nSampling rate : 48.0 KHz\nStream size : 129 MiB (9%)\nAlignment : Aligned on interleaves\nInterleave, duration : 40 ms (1.00 video frame)\nInterleave, preload duration : 512 ms\n\n\nScreens\n &lt;a href=&quot;\nhttp://postimg.com/image/17000/16561.jpg&quot; rel=&quot;nofollow&quot; target=&quot;_NEW&quot;&gt;\nhttp://postimg.com/image/17000/16561.jpg&lt;/a&gt;","torrent":{"xt":"urn:btih:b9441806cc859bf6164bf3d28b2a42e1b88acccd","amp;dn":"Toy+Story+3.2010.CAM.XviD.AC3.RUS-ELEKTRI4KA","amp;tr":["udp%3A%2F%2Ftracker.openbittorrent.com%3A80","udp%3A%2F%2Fopen.demonii.com%3A1337","udp%3A%2F%2Ftracker.coppersurfer.tk%3A6969","udp%3A%2F%2Fexodus.desync.com%3A6969"],"infoHash":"b9441806cc859bf6164bf3d28b2a42e1b88acccd","infoHashBuffer":{"type":"Buffer","data":[185,68,24,6,204,133,155,246,22,75,243,210,139,42,66,225,184,138,204,205]},"announce":[],"urlList":[]}}